<svg width="198" height="36" viewBox="0 0 198 36" fill="none" xmlns="http://www.w3.org/2000/svg">
<path d="M13.984 35.672C9.888 35.672 6.64 34.52 4.24 32.216C1.84 29.88 0.64 26.52 0.64 22.136V14.264C0.64 9.88 1.84 6.536 4.24 4.232C6.64 1.896 9.888 0.727998 13.984 0.727998C18.016 0.727998 21.12 1.848 23.296 4.088C25.504 6.328 26.608 9.384 26.608 13.256V13.544H21.472V13.112C21.472 10.84 20.848 8.984 19.6 7.544C18.384 6.104 16.512 5.384 13.984 5.384C11.424 5.384 9.424 6.168 7.984 7.736C6.544 9.272 5.824 11.416 5.824 14.168V22.232C5.824 24.952 6.544 27.096 7.984 28.664C9.424 30.232 11.424 31.016 13.984 31.016C16.512 31.016 18.384 30.296 19.6 28.856C20.848 27.384 21.472 25.528 21.472 23.288V22.472H26.608V23.144C26.608 27.016 25.504 30.072 23.296 32.312C21.12 34.552 18.016 35.672 13.984 35.672ZM30.0918 35V11.336H34.9398V14.12H35.7078C36.0918 13.128 36.6998 12.408 37.5318 11.96C38.3958 11.48 39.4518 11.24 40.6998 11.24H43.5318V15.704H40.5078C38.9078 15.704 37.5958 16.152 36.5718 17.048C35.5478 17.912 35.0358 19.256 35.0358 21.08V35H30.0918ZM56.2585 35.672C53.8585 35.672 51.7625 35.176 49.9705 34.184C48.1785 33.16 46.7705 31.736 45.7465 29.912C44.7545 28.056 44.2585 25.912 44.2585 23.48V22.904C44.2585 20.44 44.7545 18.296 45.7465 16.472C46.7385 14.616 48.1145 13.192 49.8745 12.2C51.6665 11.176 53.7305 10.664 56.0665 10.664C58.3385 10.664 60.3225 11.176 62.0185 12.2C63.7465 13.192 65.0905 14.584 66.0505 16.376C67.0105 18.168 67.4905 20.264 67.4905 22.664V24.536H49.2985C49.3625 26.616 50.0505 28.28 51.3625 29.528C52.7065 30.744 54.3705 31.352 56.3545 31.352C58.2105 31.352 59.6025 30.936 60.5305 30.104C61.4905 29.272 62.2265 28.312 62.7385 27.224L66.8185 29.336C66.3705 30.232 65.7145 31.176 64.8505 32.168C64.0185 33.16 62.9145 33.992 61.5385 34.664C60.1625 35.336 58.4025 35.672 56.2585 35.672ZM49.3465 20.744H62.4505C62.3225 18.952 61.6825 17.56 60.5305 16.568C59.3785 15.544 57.8745 15.032 56.0185 15.032C54.1625 15.032 52.6425 15.544 51.4585 16.568C50.3065 17.56 49.6025 18.952 49.3465 20.744ZM80.8338 35.672C78.8818 35.672 77.0738 35.192 75.4098 34.232C73.7458 33.272 72.4018 31.896 71.3778 30.104C70.3858 28.28 69.8898 26.088 69.8898 23.528V22.808C69.8898 20.28 70.3858 18.104 71.3778 16.28C72.3698 14.456 73.6978 13.064 75.3618 12.104C77.0258 11.144 78.8498 10.664 80.8338 10.664C82.3698 10.664 83.6498 10.856 84.6738 11.24C85.7298 11.624 86.5938 12.12 87.2658 12.728C87.9378 13.304 88.4498 13.912 88.8018 14.552H89.5698V1.4H94.5138V35H89.6658V31.64H88.8978C88.2898 32.664 87.3618 33.592 86.1138 34.424C84.8978 35.256 83.1378 35.672 80.8338 35.672ZM82.2258 31.352C84.3698 31.352 86.1298 30.664 87.5058 29.288C88.9138 27.912 89.6178 25.944 89.6178 23.384V22.952C89.6178 20.424 88.9298 18.472 87.5538 17.096C86.1778 15.72 84.4018 15.032 82.2258 15.032C80.1138 15.032 78.3538 15.72 76.9458 17.096C75.5698 18.472 74.8818 20.424 74.8818 22.952V23.384C74.8818 25.944 75.5698 27.912 76.9458 29.288C78.3538 30.664 80.1138 31.352 82.2258 31.352ZM110.24 35.672C107.84 35.672 105.744 35.176 103.952 34.184C102.16 33.16 100.752 31.736 99.7278 29.912C98.7358 28.056 98.2398 25.912 98.2398 23.48V22.904C98.2398 20.44 98.7358 18.296 99.7278 16.472C100.72 14.616 102.096 13.192 103.856 12.2C105.648 11.176 107.712 10.664 110.048 10.664C112.32 10.664 114.304 11.176 116 12.2C117.728 13.192 119.072 14.584 120.032 16.376C120.992 18.168 121.472 20.264 121.472 22.664V24.536H103.28C103.344 26.616 104.032 28.28 105.344 29.528C106.688 30.744 108.352 31.352 110.336 31.352C112.192 31.352 113.584 30.936 114.512 30.104C115.472 29.272 116.208 28.312 116.72 27.224L120.8 29.336C120.352 30.232 119.696 31.176 118.832 32.168C118 33.16 116.896 33.992 115.52 34.664C114.144 35.336 112.384 35.672 110.24 35.672ZM103.328 20.744H116.432C116.304 18.952 115.664 17.56 114.512 16.568C113.36 15.544 111.856 15.032 110 15.032C108.144 15.032 106.624 15.544 105.44 16.568C104.288 17.56 103.584 18.952 103.328 20.744ZM125.023 35V11.336H129.871V14.888H130.639C131.087 13.928 131.887 13.032 133.039 12.2C134.191 11.368 135.903 10.952 138.175 10.952C139.967 10.952 141.551 11.352 142.927 12.152C144.335 12.952 145.439 14.088 146.239 15.56C147.039 17 147.439 18.744 147.439 20.792V35H142.495V21.176C142.495 19.128 141.983 17.624 140.959 16.664C139.935 15.672 138.527 15.176 136.735 15.176C134.687 15.176 133.039 15.848 131.791 17.192C130.575 18.536 129.967 20.488 129.967 23.048V35H125.023ZM151.194 35V28.952L165.162 16.184V15.512H151.674V11.336H170.538V17.432L156.522 30.2V30.824H170.922V35H151.194ZM181.942 35.672C180.246 35.672 178.726 35.384 177.382 34.808C176.07 34.232 175.014 33.384 174.214 32.264C173.446 31.144 173.062 29.784 173.062 28.184C173.062 26.552 173.446 25.208 174.214 24.152C175.014 23.064 176.086 22.248 177.43 21.704C178.806 21.16 180.358 20.888 182.086 20.888H189.286V19.352C189.286 17.976 188.87 16.872 188.038 16.04C187.206 15.208 185.926 14.792 184.198 14.792C182.502 14.792 181.206 15.192 180.31 15.992C179.414 16.792 178.822 17.832 178.534 19.112L173.926 17.624C174.31 16.344 174.918 15.192 175.75 14.168C176.614 13.112 177.75 12.264 179.158 11.624C180.566 10.984 182.262 10.664 184.246 10.664C187.318 10.664 189.734 11.448 191.494 13.016C193.254 14.584 194.134 16.808 194.134 19.688V29.432C194.134 30.392 194.582 30.872 195.478 30.872H197.494V35H193.798C192.678 35 191.766 34.712 191.062 34.136C190.358 33.56 190.006 32.776 190.006 31.784V31.64H189.286C189.03 32.12 188.646 32.68 188.134 33.32C187.622 33.96 186.87 34.52 185.878 35C184.886 35.448 183.574 35.672 181.942 35.672ZM182.662 31.592C184.646 31.592 186.246 31.032 187.462 29.912C188.678 28.76 189.286 27.192 189.286 25.208V24.728H182.374C181.062 24.728 180.006 25.016 179.206 25.592C178.406 26.136 178.006 26.952 178.006 28.04C178.006 29.128 178.422 29.992 179.254 30.632C180.086 31.272 181.222 31.592 182.662 31.592Z" fill="white"/>
</svg>
